%TF.GenerationSoftware,KiCad,Pcbnew,7.0.5*%
%TF.CreationDate,2023-11-09T00:00:04-05:00*%
%TF.ProjectId,rj45-breakout-board,726a3435-2d62-4726-9561-6b6f75742d62,0.1.0*%
%TF.SameCoordinates,Original*%
%TF.FileFunction,Copper,L1,Top*%
%TF.FilePolarity,Positive*%
%FSLAX46Y46*%
G04 Gerber Fmt 4.6, Leading zero omitted, Abs format (unit mm)*
G04 Created by KiCad (PCBNEW 7.0.5) date 2023-11-09 00:00:04*
%MOMM*%
%LPD*%
G01*
G04 APERTURE LIST*
%TA.AperFunction,ComponentPad*%
%ADD10R,1.400000X1.400000*%
%TD*%
%TA.AperFunction,ComponentPad*%
%ADD11C,1.400000*%
%TD*%
%TA.AperFunction,ComponentPad*%
%ADD12C,3.000000*%
%TD*%
%TA.AperFunction,ComponentPad*%
%ADD13R,1.650000X1.650000*%
%TD*%
%TA.AperFunction,ComponentPad*%
%ADD14C,1.650000*%
%TD*%
%TA.AperFunction,Conductor*%
%ADD15C,0.250000*%
%TD*%
G04 APERTURE END LIST*
D10*
%TO.P,J1,1,1*%
%TO.N,Net-(J2-1.1)*%
X63250000Y-75810000D03*
D11*
%TO.P,J1,2,2*%
%TO.N,Net-(J2-2.1)*%
X64770000Y-76830000D03*
%TO.P,J1,3,3*%
%TO.N,Net-(J2-3.1)*%
X64770000Y-74800000D03*
%TO.P,J1,4,4*%
%TO.N,Net-(J2-4.1)*%
X64770000Y-72770000D03*
%TO.P,J1,5,5*%
%TO.N,Net-(J2-5.1)*%
X63250000Y-73780000D03*
%TO.P,J1,6,6*%
%TO.N,Net-(J2-6.1)*%
X63250000Y-71750000D03*
%TO.P,J1,7,7*%
%TO.N,Net-(J2-7.1)*%
X63250000Y-69720000D03*
%TO.P,J1,8,8*%
%TO.N,Net-(J2-8.1)*%
X64770000Y-70740000D03*
D12*
%TO.P,J1,MH1,MH1*%
%TO.N,unconnected-(J1-PadMH1)*%
X61420000Y-81000000D03*
%TO.P,J1,MH2,MH2*%
%TO.N,unconnected-(J1-PadMH2)*%
X61420000Y-65560000D03*
%TO.P,J1,MH3,MH3*%
%TO.N,unconnected-(J1-PadMH3)*%
X69090000Y-79380000D03*
%TO.P,J1,MH4,MH4*%
%TO.N,unconnected-(J1-PadMH4)*%
X69090000Y-67180000D03*
%TD*%
D13*
%TO.P,J2,1,1.1*%
%TO.N,Net-(J2-1.1)*%
X76990000Y-74720000D03*
D14*
%TO.P,J2,2,1.2*%
X76990000Y-69720000D03*
%TO.P,J2,3,2.1*%
%TO.N,Net-(J2-2.1)*%
X80490000Y-74720000D03*
%TO.P,J2,4,2.2*%
X80490000Y-69720000D03*
%TO.P,J2,5,3.1*%
%TO.N,Net-(J2-3.1)*%
X83990000Y-74720000D03*
%TO.P,J2,6,3.2*%
X83990000Y-69720000D03*
%TO.P,J2,7,4.1*%
%TO.N,Net-(J2-4.1)*%
X87490000Y-74720000D03*
%TO.P,J2,8,4.2*%
X87490000Y-69720000D03*
%TO.P,J2,9,5.1*%
%TO.N,Net-(J2-5.1)*%
X90990000Y-74720000D03*
%TO.P,J2,10,5.2*%
X90990000Y-69720000D03*
%TO.P,J2,11,6.1*%
%TO.N,Net-(J2-6.1)*%
X94490000Y-74720000D03*
%TO.P,J2,12,6.2*%
X94490000Y-69720000D03*
%TO.P,J2,13,7.1*%
%TO.N,Net-(J2-7.1)*%
X97990000Y-74720000D03*
%TO.P,J2,14,7.2*%
X97990000Y-69720000D03*
%TO.P,J2,15,8.1*%
%TO.N,Net-(J2-8.1)*%
X101490000Y-74720000D03*
%TO.P,J2,16,8.2*%
X101490000Y-69720000D03*
%TD*%
D15*
%TO.N,Net-(J2-1.1)*%
X63250000Y-76760000D02*
X67695000Y-81205000D01*
X67695000Y-81205000D02*
X70505000Y-81205000D01*
X63250000Y-75810000D02*
X63250000Y-76760000D01*
X70505000Y-81205000D02*
X76990000Y-74720000D01*
X76990000Y-74720000D02*
X76990000Y-69720000D01*
%TO.N,Net-(J2-2.1)*%
X73030000Y-68570000D02*
X79340000Y-68570000D01*
X80490000Y-69720000D02*
X80490000Y-74720000D01*
X79340000Y-68570000D02*
X80490000Y-69720000D01*
X64770000Y-76830000D02*
X73030000Y-68570000D01*
%TO.N,Net-(J2-3.1)*%
X71450000Y-68120000D02*
X82390000Y-68120000D01*
X64770000Y-74800000D02*
X71450000Y-68120000D01*
X83990000Y-74720000D02*
X83990000Y-69720000D01*
X82390000Y-68120000D02*
X83990000Y-69720000D01*
%TO.N,Net-(J2-4.1)*%
X66163604Y-72770000D02*
X71263604Y-67670000D01*
X85440000Y-67670000D02*
X87490000Y-69720000D01*
X87490000Y-69720000D02*
X87490000Y-74720000D01*
X64770000Y-72770000D02*
X66163604Y-72770000D01*
X71263604Y-67670000D02*
X85440000Y-67670000D01*
%TO.N,Net-(J2-5.1)*%
X62225000Y-76825000D02*
X67055000Y-81655000D01*
X67055000Y-81655000D02*
X84055000Y-81655000D01*
X90990000Y-74720000D02*
X90990000Y-69720000D01*
X84055000Y-81655000D02*
X90990000Y-74720000D01*
X62225000Y-74805000D02*
X62225000Y-76825000D01*
X63250000Y-73780000D02*
X62225000Y-74805000D01*
%TO.N,Net-(J2-6.1)*%
X61775000Y-77645000D02*
X66235000Y-82105000D01*
X94490000Y-69720000D02*
X94490000Y-74720000D01*
X63250000Y-71750000D02*
X61775000Y-73225000D01*
X66235000Y-82105000D02*
X87105000Y-82105000D01*
X61775000Y-73225000D02*
X61775000Y-77645000D01*
X87105000Y-82105000D02*
X94490000Y-74720000D01*
%TO.N,Net-(J2-7.1)*%
X61325000Y-78324060D02*
X65555940Y-82555000D01*
X63250000Y-69720000D02*
X61325000Y-71645000D01*
X61325000Y-71645000D02*
X61325000Y-78324060D01*
X90155000Y-82555000D02*
X97990000Y-74720000D01*
X97990000Y-74720000D02*
X97990000Y-69720000D01*
X65555940Y-82555000D02*
X90155000Y-82555000D01*
%TO.N,Net-(J2-8.1)*%
X101490000Y-69720000D02*
X101490000Y-74720000D01*
X64770000Y-68919060D02*
X68334060Y-65355000D01*
X64770000Y-70740000D02*
X64770000Y-68919060D01*
X68334060Y-65355000D02*
X97125000Y-65355000D01*
X97125000Y-65355000D02*
X101490000Y-69720000D01*
%TD*%
M02*
