M48
; DRILL file {KiCad 7.0.5} date Thu Nov  9 00:00:07 2023
; FORMAT={-:-/ absolute / inch / decimal}
; #@! TF.CreationDate,2023-11-09T00:00:07-05:00
; #@! TF.GenerationSoftware,Kicad,Pcbnew,7.0.5
; #@! TF.FileFunction,Plated,1,2,PTH
FMAT,2
INCH
; #@! TA.AperFunction,Plated,PTH,ComponentDrill
T1C0.0354
; #@! TA.AperFunction,Plated,PTH,ComponentDrill
T2C0.0433
; #@! TA.AperFunction,Plated,PTH,ComponentDrill
T3C0.0787
%
G90
G05
T1
X2.4902Y-2.7449
X2.4902Y-2.8248
X2.4902Y-2.9047
X2.4902Y-2.9846
X2.55Y-2.785
X2.55Y-2.865
X2.55Y-2.9449
X2.55Y-3.0248
T2
X3.0311Y-2.7449
X3.0311Y-2.9417
X3.1689Y-2.7449
X3.1689Y-2.9417
X3.3067Y-2.7449
X3.3067Y-2.9417
X3.4445Y-2.7449
X3.4445Y-2.9417
X3.5823Y-2.7449
X3.5823Y-2.9417
X3.7201Y-2.7449
X3.7201Y-2.9417
X3.8579Y-2.7449
X3.8579Y-2.9417
X3.9957Y-2.7449
X3.9957Y-2.9417
T3
X2.4181Y-2.5811
X2.4181Y-3.189
X2.7201Y-2.6449
X2.7201Y-3.1252
T0
M30
